<svg id="Capa_1" data-name="Capa 1" xmlns="http://www.w3.org/2000/svg" width="1200" height="237" viewBox="0 0 1200 237"><defs><style>.cls-1{fill:#284c7a;}</style></defs><title>Logo Mambrino</title><path class="cls-1" d="M45.1,51.4c7.9.1,15.9.2,23.8.1a3.5,3.5,0,0,1,3.4,1.8l37.6,58.4c.7,1.2,1.5,2.3,2.5,3.8l5.7-8.6c11.1-17.3,22.3-34.6,33.3-52,1.7-2.7,3.4-3.5,6.4-3.4,6.5.2,13,0,19.6,0h2.3V188.8H155.2V93h-.4l-1.6,2L133.1,125c-6.5,9.6-13,19.3-19.4,29-1.3,1.9-2.1,1.9-3.5-.1L71.1,95.2a5.1,5.1,0,0,0-2-1.8v95.8h-24Z"/><path class="cls-1" d="M1074.3,191.2a13.8,13.8,0,0,0-2.7-.8,68.9,68.9,0,0,1-60.1-62.4c-1.8-20.4,3.3-38.8,16.7-54.4a66.7,66.7,0,0,1,40.7-23c17.3-2.9,34.1-1.5,49.7,7.2,20.3,11.3,32.2,28.7,35.3,51.7,2,15.1.4,30-7,43.7-11,20.7-28.2,32.9-51.2,37l-4.7,1Zm-37.7-70.1c.1,1.6.2,4.2.5,6.7a47.3,47.3,0,0,0,11.9,26c10.7,11.6,24.1,16.5,39.7,14.7s27.7-10.4,35-24.7c5.8-11.2,6.9-23.1,4.1-35.3a46.7,46.7,0,0,0-17.3-27.6c-9.3-7.1-19.8-9.9-31.3-9.2a43.3,43.3,0,0,0-26.7,11.1C1041.5,92.8,1036.7,105.4,1036.6,121.1Z"/><path class="cls-1" d="M495.5,188.6H471V92.3h-.5l-2,2.7-39.4,58.8c-1.4,2.1-1.6,2.1-3,0L386.6,94.6a5.1,5.1,0,0,0-2.1-2v95.9h-24v-2.2c0-44.1.1-88.1,0-132.2,0-2,.5-2.6,2.6-2.6,7,.2,14.1.1,21.2,0a3.7,3.7,0,0,1,3.4,1.9l38.8,60.5,1.4,1.9a20.9,20.9,0,0,0,1.4-1.7L468,54a4.6,4.6,0,0,1,4.5-2.5c7,.2,14,.1,21,0,1.5,0,2.1.3,2.1,2V187.2C495.6,187.6,495.5,188,495.5,188.6Z"/><path class="cls-1" d="M616.4,117.5l4.4,1.8c8,3.5,15.2,8.1,18.9,16.3,7.1,16,3.6,38.5-18,47.8a66.8,66.8,0,0,1-26.8,5.3H531c-1.7,0-2.3-.4-2.3-2.3V51.8l2.4-.2c20.4,0,40.9-.1,61.3.1,10.3.1,20.3,2.1,28.9,8.1,10.7,7.5,14.9,17.9,13.8,30.7s-7,19.8-16.7,25.6Zm-63.7,49.6,1.4.2h39.1a35,35,0,0,0,15.9-3.3c7-3.6,9.9-9.4,9.4-17s-4.3-11.3-10.3-13.9a32.4,32.4,0,0,0-13.7-2.9c-13.5-.2-27-.1-40.5-.1l-1.3.2Zm18.9-57.7H581c5.1,0,10.3.2,15.3-1.3,7.6-2.1,13.2-6.1,14.6-14.6A16.3,16.3,0,0,0,603.7,77c-4.7-2.9-10-3.8-15.3-3.9-11.4-.2-22.8,0-34.2-.1-1.4,0-1.9.5-1.9,1.9.1,10.8.1,21.7,0,32.6,0,1.5.5,1.9,2,1.9C560.1,109.3,565.8,109.4,571.6,109.4Z"/><path class="cls-1" d="M984.8,188.7h-6.2c-3.9,0-7.8-.1-11.8.1a4.2,4.2,0,0,1-3.7-1.9c-8.6-11.1-17.1-22.3-25.8-33.4L910,118.4,891.3,94.1a7.8,7.8,0,0,1-1-1.5l-.7.4v95.5H865.4v-2.1q0-66.3-.1-132.4c0-2.1.7-2.5,2.6-2.5,6,.1,12.1.1,18.1,0a3.5,3.5,0,0,1,3.2,1.6q18.4,24,37.1,47.8c10.1,13,20.1,26.1,30.1,39.1,1.3,1.7,2.7,3.3,4.1,4.9h.6V54c0-1.9.4-2.5,2.4-2.5,6.4.2,12.8.1,19.2.1h2.1Z"/><path class="cls-1" d="M692.8,188.6H670.4c-1.6,0-1.9-.5-1.9-2V53.5c0-.5.1-1,.1-1.7l2.3-.2c20.3,0,40.7-.1,61.1.1,11,.1,21.5,2.4,30.9,8.6C774,67.5,779.3,78,780.5,90.9a46.3,46.3,0,0,1-2.8,21.2c-4.3,11-12.5,18.1-23.2,22.6l-6.3,2.4,36.7,51.4-2,.2H758.1a3.3,3.3,0,0,1-3-1.6c-10.3-14.8-20.8-29.5-31.1-44.3a3.9,3.9,0,0,0-3.5-1.9H695c-1.8,0-2.3.5-2.3,2.3.1,14.2.1,28.4.1,42.6Zm0-91.9c0,6.9,0,13.9-.1,20.8,0,1.6.6,2.1,2.1,2.1h35.3a33.2,33.2,0,0,0,15-3.9c14.2-7.8,13.4-27.5,4.3-35.2-5.4-4.6-11.8-6.4-18.6-6.5-12-.3-24.1-.1-36.1-.1-1.7,0-2,.7-1.9,2.1Z"/><path class="cls-1" d="M341.7,188.6H317.9a2.6,2.6,0,0,1-2.7-1.8c-4-9.7-8.1-19.3-12-29a3.4,3.4,0,0,0-3.6-2.3H240.1a3.1,3.1,0,0,0-3.4,2.3c-4,9.6-8.2,19.1-12.2,28.6a3,3,0,0,1-3.3,2.2c-6.7-.1-13.3,0-20,0h-2.6l2.6-6.1q23-52.3,45.8-104.8l11.1-25.4a2.6,2.6,0,0,1,2.8-1.9q9.3.1,18.6,0a2.7,2.7,0,0,1,2.8,1.9c10.5,24.2,21.1,48.3,31.6,72.4l26.4,60.5Zm-71.5-108h-.8l-22.9,53.5h46.8C285.5,116,277.9,98.3,270.2,80.6Z"/><path class="cls-1" d="M832.1,51.8V188.5H807.8V54.3c0-2.7,0-2.7,2.7-2.7h19.1Z"/></svg>