<?xml version="1.0" encoding="utf-8"?>
<!-- Generator: Adobe Illustrator 24.2.3, SVG Export Plug-In . SVG Version: 6.00 Build 0)  -->
<svg version="1.1" id="Capa_1" xmlns="http://www.w3.org/2000/svg" xmlns:xlink="http://www.w3.org/1999/xlink" x="0px" y="0px"
	 viewBox="0 0 432.68 134.09" style="enable-background:new 0 0 432.68 134.09;" xml:space="preserve">
<style type="text/css">
	.st0{fill:#0D3671;}
</style>
<g>
	<path class="st0" d="M429.91,85.26c-1.83-4.19-4.35-7.94-7.51-11.17c-3.21-3.14-6.95-5.67-11.13-7.5
		c-4.14-1.84-8.7-2.77-13.54-2.77c-4.91,0-9.5,0.93-13.64,2.77c-4.32,1.9-8.06,4.43-11.15,7.51c-3.21,3.28-5.7,7.04-7.39,11.15
		c-1.84,4.14-2.77,8.7-2.77,13.56c0,4.79,0.93,9.32,2.77,13.46c0.91,2.09,2.01,4.1,3.25,5.97c1.25,1.88,2.72,3.63,4.33,5.18
		c1.58,1.65,3.33,3.12,5.2,4.36c1.86,1.24,3.87,2.34,5.96,3.25c4.14,1.84,8.66,2.77,13.45,2.77c4.91,0,9.5-0.93,13.64-2.77
		c4.19-1.83,7.9-4.36,11.05-7.51c3.08-3.09,5.6-6.84,7.5-11.16c1.84-4.14,2.77-8.71,2.77-13.56
		C432.68,93.96,431.75,89.4,429.91,85.26 M425.34,98.77c0,3.69-0.73,7.27-2.16,10.62c-1.57,3.39-3.61,6.31-6.06,8.69
		c-2.57,2.56-5.52,4.56-8.8,5.95c-3.31,1.5-6.86,2.26-10.55,2.26c-3.95,0-7.59-0.76-10.87-2.27c-3.32-1.37-6.26-3.37-8.77-5.94
		c-2.44-2.44-4.41-5.39-5.85-8.77c-1.44-3.37-2.17-6.92-2.17-10.55c0-5.5,1.59-10.64,4.72-15.26l0-0.01
		c2.57-3.88,5.97-6.95,10.1-9.14c4.01-2.13,8.33-3.2,12.84-3.2c3.69,0,7.28,0.73,10.64,2.16c3.33,1.51,6.29,3.54,8.79,6.03
		c2.45,2.58,4.47,5.54,5.96,8.78C424.61,91.57,425.34,95.15,425.34,98.77"/>
	<path class="st0" d="M299.36,63.84h-4.78c-0.84,0-1.52,0.66-1.55,1.53v66.97c0.03,0.84,0.71,1.49,1.55,1.49h4.78
		c0.83,0,1.5-0.64,1.54-1.47l0-67.01l0-0.04C300.86,64.49,300.19,63.84,299.36,63.84"/>
	<path class="st0" d="M115.31,132.12l-0.01-0.04L98.6,65l-0.01-0.03c-0.19-0.69-0.8-1.15-1.51-1.15h-1.42
		c-0.71,0-1.33,0.48-1.52,1.19l-12.73,51.42l-0.55,0l-5.24,0c-0.66,0-1.24,0.44-1.43,1.09c-1.27,4.94-1.27,4.94-1.27,5.08
		c0,0.82,0.67,1.48,1.48,1.48h4.57h0.53c-0.31,1.29-1.28,5.2-1.95,7.94c-0.09,0.45,0.01,0.9,0.29,1.24
		c0.28,0.34,0.71,0.55,1.15,0.55h4.99c0.56,0,1.23-0.33,1.47-1.24l2.17-8.5h17.6l2.09,8.51c0.12,0.71,0.73,1.24,1.46,1.24h5.08
		c0.43,0,0.84-0.19,1.12-0.51C115.25,132.98,115.37,132.55,115.31,132.12 M102.84,116.39H89.9c-0.3,0-0.55-0.25-0.55-0.55
		c0-0.02,6.79-26.88,6.79-26.88c0.04-0.14,0.17-0.24,0.32-0.24c0.15,0,0.28,0.1,0.32,0.25c0,0,6.62,26.85,6.62,26.87
		C103.39,116.14,103.15,116.39,102.84,116.39"/>
	<path class="st0" d="M231.61,104.71l-0.01-0.04c-0.61-2.01-1.43-3.91-2.46-5.67c-0.54-0.86-1.12-1.7-1.73-2.47
		c-0.73-0.93-1.38-1.65-2.05-2.29c-1.47-1.4-3.04-2.39-3.9-2.89c2.81-2.98,4.23-6.53,4.23-10.55c0-4.71-1.5-8.59-4.46-11.56
		c-2.68-2.62-5.92-4.32-9.65-5.06c-0.62-0.13-1.79-0.36-3.8-0.36h-4.25c-0.86,0-1.55,0.7-1.55,1.55v66.96
		c0,0.81,0.66,1.48,1.46,1.48l0.05,0h0.01c6.38-0.02,10.65-0.42,13.01-1.21c2.32-0.68,4.49-1.81,6.46-3.36
		c2.02-1.54,3.72-3.28,5.08-5.17c1.41-2.01,2.5-4.16,3.25-6.39c0.74-2.35,1.12-4.68,1.12-6.9
		C232.43,108.9,232.15,106.85,231.61,104.71 M209.74,71.95c0-0.06,0.01-0.11,0.02-0.16c0.07-0.23,0.27-0.39,0.51-0.41
		c1.22,0.02,2.34,0.23,3.33,0.64c1.04,0.43,2,1.08,2.86,1.94c0.8,0.8,1.44,1.75,1.94,2.86c0.43,1.04,0.64,2.21,0.64,3.5
		c0,1.35-0.22,2.49-0.64,3.41c-0.43,1.04-1.08,2-1.94,2.86c-0.8,0.8-1.75,1.44-2.86,1.94c-1.11,0.47-2.22,0.71-3.34,0.73
		c-0.3-0.02-0.54-0.27-0.54-0.57V71.95z M224.21,116.76c-0.8,1.78-1.91,3.38-3.32,4.79c-1.29,1.29-2.89,2.34-4.79,3.13
		c-1.78,0.8-3.69,1.2-5.71,1.2h-0.07c-0.32,0-0.58-0.26-0.58-0.58V96.33c0-0.06,0.01-0.11,0.02-0.16c0.07-0.24,0.29-0.42,0.56-0.42
		h0.07c2.09,0,4.02,0.4,5.81,1.2c0.86,0.43,1.7,0.91,2.53,1.43c0.83,0.52,1.58,1.12,2.26,1.8c1.29,1.29,2.36,2.89,3.23,4.79
		c0.8,1.78,1.2,3.72,1.2,5.81C225.41,112.98,225.01,114.98,224.21,116.76"/>
	<path class="st0" d="M275.72,126.36c-2.79-0.77-5.39-3.05-7.74-6.81l-2.81-5.73c-0.47-0.94-1.05-1.92-1.73-2.95
		c-0.33-0.46-0.64-0.89-0.94-1.28c-0.08-0.11-0.17-0.22-0.25-0.33c9.26-4.4,13.95-11.67,13.95-21.62c0-3.16-0.62-6.2-1.83-9.03
		c-1.28-2.95-2.95-5.48-4.98-7.5c-2.14-2.07-4.58-3.8-7.28-5.15c-3.26-1.47-6.7-2.13-11.17-2.13h-3.35c-0.85,0-1.55,0.7-1.55,1.55
		c0,0.02,0,66.92,0,66.95c0.03,0.84,0.7,1.49,1.55,1.49h4.78c0.83,0,1.5-0.64,1.54-1.47l0.01-20.63c0.36,0.27,0.79,0.61,1.29,1.06
		c0.51,0.46,1.02,0.97,1.28,1.29c0.2,0.25,0.59,0.74,0.94,1.23c0.31,0.44,0.63,0.92,0.95,1.42c0.31,0.5,0.63,1.05,0.94,1.65
		c0.31,0.59,0.63,1.25,0.96,1.97l2.54,5.37l0.02,0.05c1.91,3.5,5.97,6.28,12.05,8.27l0.16,0.04c0,0,0.16,0.02,0.24,0.02
		c0.82,0,1.48-0.66,1.48-1.48v-4.83C276.77,126.52,275.72,126.36,275.72,126.36 M260.1,102.07c-1.69,0.79-3.57,1.26-5.62,1.43
		c-0.31-0.01-0.56-0.26-0.56-0.58V72.25c0-0.36,0.3-0.58,0.58-0.58c1.83,0.12,3.64,0.57,5.42,1.35c1.78,0.8,3.41,1.94,4.89,3.41
		c1.35,1.41,2.46,3.07,3.32,4.98c0.8,1.84,1.2,3.91,1.2,6.18c0,2.09-0.37,4.09-1.11,5.99c-0.86,2.03-1.94,3.69-3.23,4.98
		C263.58,100.05,261.95,101.21,260.1,102.07"/>
	<path class="st0" d="M324.25,64.89c-0.21-0.63-0.8-1.06-1.46-1.06h-1.28c-0.82,0-1.5,0.65-1.54,1.47l0,67.03
		c0.03,0.83,0.7,1.49,1.54,1.49h4.78c0.83,0,1.5-0.64,1.54-1.47l0.01-33.7c0-0.16,0.13-0.23,0.13-0.23
		c0.03-0.02,0.07-0.03,0.12-0.03c0.11,0,0.2,0.07,0.24,0.16l12.78,34.36c0.23,0.55,0.77,0.91,1.36,0.91h5.99
		c0.7,0,1.45-0.49,1.45-1.28V65.39c0-0.85-0.7-1.55-1.55-1.55h-4.59c-0.81,0-1.49,0.64-1.54,1.45l0,46.34
		c0,0.16-0.14,0.23-0.14,0.23c-0.03,0.02-0.07,0.03-0.12,0.03c-0.11,0-0.2-0.07-0.24-0.16L324.25,64.89z"/>
	<path class="st0" d="M296.21,0.14h-2.48c-0.57,0-1.03,0.45-1.04,1.04v34.44c0.02,0.57,0.48,1.01,1.04,1.01h2.48
		c0.56,0,1.02-0.43,1.04-1V1.14C297.22,0.58,296.77,0.14,296.21,0.14"/>
	<path class="st0" d="M254.21,5.37c-1.68-1.64-3.64-2.96-5.82-3.92C246.23,0.49,243.84,0,241.3,0c-2.57,0-4.97,0.49-7.14,1.45
		c-2.26,0.99-4.22,2.31-5.83,3.93c-1.68,1.72-2.98,3.68-3.87,5.83c-0.96,2.17-1.45,4.56-1.45,7.1c0,2.51,0.49,4.88,1.45,7.05
		c0.48,1.09,1.05,2.14,1.7,3.12c0.66,0.99,1.42,1.9,2.26,2.71c0.83,0.86,1.74,1.63,2.72,2.29c0.97,0.65,2.02,1.22,3.11,1.7
		c2.17,0.96,4.53,1.45,7.04,1.45c2.57,0,4.97-0.49,7.14-1.45c2.19-0.96,4.13-2.28,5.78-3.93c1.61-1.62,2.93-3.58,3.92-5.83
		c0.96-2.17,1.45-4.56,1.45-7.1c0-2.54-0.49-4.93-1.45-7.1C257.18,9.02,255.86,7.06,254.21,5.37 M255.31,18.29
		c0,1.87-0.37,3.68-1.09,5.38c-0.8,1.72-1.83,3.21-3.08,4.42c-1.3,1.3-2.81,2.32-4.47,3.02c-1.68,0.76-3.48,1.14-5.34,1.14
		c-2,0-3.85-0.39-5.52-1.15c-1.68-0.7-3.18-1.71-4.45-3.01c-1.24-1.24-2.24-2.73-2.97-4.45c-0.73-1.71-1.1-3.51-1.1-5.35
		c0-2.79,0.81-5.39,2.4-7.75c1.3-1.97,3.03-3.53,5.13-4.64c2.03-1.08,4.22-1.63,6.51-1.63c1.87,0,3.69,0.37,5.39,1.09
		c1.69,0.77,3.19,1.8,4.46,3.06c1.25,1.31,2.27,2.81,3.03,4.46C254.94,14.63,255.31,16.45,255.31,18.29"/>
	<path class="st0" d="M143.67,32.3c-1.37-0.38-2.67-1.53-3.83-3.38l-1.45-2.96c-0.25-0.49-0.55-1.02-0.91-1.56
		c-0.15-0.21-0.3-0.41-0.44-0.6c4.69-2.32,7.07-6.11,7.07-11.25c0-1.67-0.32-3.27-0.96-4.76c-0.67-1.55-1.55-2.88-2.62-3.95
		c-1.12-1.09-2.41-1.99-3.83-2.7c-1.58-0.71-3.28-1-5.86-1h-1.73c-0.58,0-1.04,0.47-1.04,1.04l0,34.45
		c0.02,0.56,0.48,1.01,1.04,1.01h2.47c0.56,0,1.01-0.43,1.04-1l0-10.15c0.09,0.07,0.17,0.15,0.26,0.22
		c0.26,0.23,0.51,0.48,0.63,0.64c0.1,0.13,0.3,0.38,0.48,0.62c0.16,0.22,0.32,0.46,0.48,0.72c0.16,0.25,0.32,0.53,0.48,0.84
		c0.16,0.3,0.32,0.63,0.49,1.01l1.31,2.77l0.02,0.04c1.02,1.86,3.16,3.34,6.38,4.39l0.11,0.02c0,0,0.1,0.01,0.15,0.01
		c0.55,0,1.01-0.45,1.01-1.01v-2.5C144.41,32.61,143.94,32.35,143.67,32.3 M135.61,19.71c-0.82,0.39-1.73,0.63-2.72,0.71
		c-0.15-0.01-0.27-0.13-0.27-0.29V4.87c0-0.18,0.15-0.29,0.28-0.29c0.89,0.06,1.76,0.29,2.63,0.67c0.86,0.4,1.65,0.96,2.37,1.7
		c0.65,0.7,1.19,1.53,1.61,2.48c0.39,0.92,0.58,1.94,0.58,3.07c0,1.04-0.18,2.04-0.54,2.98c-0.42,1.01-0.94,1.84-1.56,2.48
		C137.29,18.7,136.5,19.29,135.61,19.71"/>
	<path class="st0" d="M118.99,0.14h-15.85c-0.57,0.02-1.01,0.48-1.01,1.04v2.48c0,0.56,0.43,1.02,1,1.04h6.04l0,30.91
		c0.02,0.57,0.48,1.01,1.04,1.01h2.48c0.56,0,1.02-0.43,1.04-1l0-30.92h5.28c0.56-0.03,1-0.49,1-1.04V1.18
		C120.02,0.61,119.56,0.16,118.99,0.14"/>
	<path class="st0" d="M193.77,0.14h-15.85c-0.57,0.02-1.01,0.48-1.01,1.04v2.48c0,0.56,0.43,1.02,1,1.04h6.04v30.91
		c0.02,0.57,0.48,1.01,1.04,1.01h2.48c0.56,0,1.02-0.43,1.04-1V4.7h5.28c0.56-0.03,1-0.49,1-1.04V1.18
		C194.8,0.61,194.35,0.16,193.77,0.14"/>
	<path class="st0" d="M217.43,0.14h-15.85c-0.57,0.02-1.01,0.48-1.01,1.04v2.48c0,0.56,0.43,1.02,1,1.04h6.04v30.91
		c0.02,0.57,0.48,1.01,1.04,1.01h2.48c0.56,0,1.02-0.43,1.04-1l0-30.92h5.28c0.56-0.03,1-0.49,1-1.04V1.18
		C218.46,0.61,218.01,0.16,217.43,0.14"/>
	<path class="st0" d="M173.47,35.47l-8.64-34.7C164.7,0.31,164.29,0,163.81,0h-0.73c-0.47,0-0.89,0.33-1.02,0.8l-6.53,26.36l-0.09,0
		l-2.7,0c-0.45,0-0.85,0.3-0.97,0.75c-0.67,2.58-0.67,2.58-0.67,2.68c0,0.56,0.45,1.01,1.01,1.01h2.32
		c-0.21,0.85-0.63,2.56-0.94,3.81c-0.06,0.3,0.01,0.61,0.2,0.85c0.19,0.23,0.48,0.37,0.78,0.37h2.58c0.36,0,0.84-0.22,0.99-0.83
		l1.07-4.21h8.71l1.03,4.19c0.08,0.49,0.5,0.84,0.99,0.84h2.62c0.29,0,0.57-0.13,0.76-0.35C173.42,36.06,173.51,35.76,173.47,35.47
		 M166.5,27.14h-6.11c-0.14,0-0.26-0.12-0.26-0.26c0-0.01,3.21-12.68,3.21-12.68c0.02-0.06,0.08-0.11,0.15-0.11
		c0.07,0,0.13,0.05,0.15,0.12c0,0,3.12,12.67,3.12,12.68C166.76,27.03,166.65,27.14,166.5,27.14"/>
	<path class="st0" d="M326.82,35.47l-8.64-34.7C318.06,0.31,317.65,0,317.17,0h-0.74c-0.47,0-0.89,0.33-1.02,0.8l-6.53,26.36
		l-0.09,0l-2.7,0c-0.45,0-0.85,0.3-0.97,0.75c-0.67,2.58-0.67,2.58-0.67,2.68c0,0.56,0.45,1.01,1.01,1.01h2.32
		c-0.21,0.85-0.63,2.56-0.94,3.81c-0.06,0.3,0.01,0.61,0.2,0.85c0.19,0.23,0.48,0.37,0.78,0.37h2.58c0.36,0,0.84-0.22,0.99-0.83
		l1.07-4.21h8.71l1.03,4.19c0.08,0.49,0.5,0.84,0.99,0.84h2.62c0.29,0,0.57-0.13,0.76-0.35C326.78,36.06,326.86,35.76,326.82,35.47
		 M319.86,27.14h-6.11c-0.14,0-0.26-0.12-0.26-0.26c0-0.01,3.21-12.68,3.21-12.68c0.02-0.06,0.08-0.11,0.15-0.11
		c0.07,0,0.13,0.05,0.15,0.12c0,0,3.12,12.67,3.12,12.68C320.12,27.03,320,27.14,319.86,27.14"/>
	<path class="st0" d="M282.78,32.3c-1.37-0.38-2.67-1.53-3.83-3.38l-1.45-2.96c-0.25-0.49-0.55-1.02-0.91-1.56
		c-0.15-0.21-0.3-0.41-0.44-0.6c4.69-2.32,7.07-6.11,7.07-11.25c0-1.67-0.32-3.27-0.96-4.76c-0.67-1.55-1.55-2.88-2.62-3.95
		c-1.12-1.09-2.41-1.99-3.83-2.7c-1.58-0.71-3.28-1-5.86-1h-1.73c-0.58,0-1.04,0.47-1.04,1.04l0,34.45
		c0.02,0.56,0.48,1.01,1.04,1.01h2.47c0.56,0,1.01-0.43,1.04-1l0-10.15c0.09,0.07,0.17,0.15,0.26,0.22
		c0.26,0.23,0.51,0.48,0.63,0.64c0.1,0.13,0.3,0.38,0.48,0.62c0.16,0.22,0.32,0.46,0.48,0.72c0.16,0.25,0.32,0.53,0.48,0.84
		c0.16,0.3,0.32,0.63,0.49,1.01l1.31,2.77l0.02,0.04c1.02,1.86,3.16,3.34,6.38,4.39l0.11,0.02c0,0,0.1,0.01,0.15,0.01
		c0.55,0,1.01-0.45,1.01-1.01v-2.5C283.51,32.61,283.04,32.35,282.78,32.3 M274.72,19.71c-0.82,0.39-1.73,0.63-2.72,0.71
		c-0.15-0.01-0.27-0.13-0.27-0.29V4.87c0-0.18,0.15-0.29,0.28-0.29c0.89,0.06,1.76,0.29,2.63,0.67c0.86,0.4,1.65,0.96,2.37,1.7
		c0.65,0.7,1.19,1.53,1.61,2.48c0.39,0.92,0.58,1.94,0.58,3.07c0,1.04-0.18,2.04-0.54,2.98c-0.42,1.01-0.94,1.84-1.56,2.48
		C276.4,18.7,275.61,19.29,274.72,19.71"/>
	<path class="st0" d="M53.3,65.12l-0.01-0.05c-0.14-0.67-0.69-1.16-1.36-1.23h-3.28c-0.67-0.06-1.3,0.44-1.57,1.07l-0.98,3.03
		l-0.02-0.02L31.8,111.3l0,0c-0.02,0.07-0.08,0.12-0.15,0.12c-0.07,0-0.14-0.05-0.15-0.12l0,0L16.21,64.91
		c-0.26-0.63-0.89-1.13-1.57-1.07h-3.28c-0.67,0.06-1.22,0.56-1.36,1.23L10,65.12c0,0-10,67.1-10,67.22c0,0.77,0.61,1.42,1.38,1.47
		l0.06,0l4.98,0c0.7,0,1.3-0.49,1.45-1.17L14.7,87.7c0.02-0.14,0.14-0.26,0.28-0.27c0.15-0.01,0.28,0.08,0.33,0.21l0.05,0.15
		l11.03,33.51h-0.01l3.57,11.39c0.17,0.67,0.72,1.12,1.37,1.12h0.66c0.66,0,1.23-0.45,1.36-1.08l3.56-11.43h0l11.03-33.51l0.05-0.15
		c0.05-0.14,0.18-0.23,0.33-0.21c0.15,0.01,0.26,0.13,0.28,0.27l6.84,44.94c0.14,0.68,0.75,1.17,1.45,1.17l4.98,0l0.06,0
		c0.77-0.05,1.38-0.7,1.38-1.47C63.3,132.22,53.3,65.12,53.3,65.12"/>
	<path class="st0" d="M178.96,65.12l-0.01-0.05c-0.14-0.67-0.69-1.16-1.36-1.23h-3.28c-0.67-0.06-1.3,0.44-1.57,1.07l-0.98,3.03
		l-0.02-0.02l-14.28,43.39l0,0c-0.02,0.07-0.08,0.12-0.15,0.12c-0.07,0-0.14-0.05-0.15-0.12l0,0l-15.29-46.39
		c-0.26-0.63-0.89-1.13-1.57-1.07h-3.28c-0.67,0.06-1.22,0.56-1.36,1.23l-0.01,0.05c0,0-10,67.1-10,67.22
		c0,0.77,0.61,1.42,1.38,1.47l0.06,0l4.98,0c0.7,0,1.3-0.49,1.45-1.17l6.84-44.94c0.02-0.14,0.13-0.26,0.28-0.27
		c0.15-0.01,0.28,0.08,0.33,0.21l0.05,0.15l11.03,33.51h-0.01l3.57,11.39c0.17,0.67,0.72,1.12,1.37,1.12h0.66
		c0.66,0,1.22-0.45,1.36-1.08l3.55-11.43h0l11.03-33.51l0.05-0.15c0.05-0.14,0.18-0.23,0.33-0.21c0.15,0.01,0.26,0.13,0.28,0.27
		l6.83,44.94c0.14,0.68,0.75,1.17,1.45,1.17l4.98,0l0.06,0c0.77-0.05,1.38-0.7,1.38-1.47C188.96,132.22,178.96,65.12,178.96,65.12"
		/>
</g>
</svg>
