<svg xmlns="http://www.w3.org/2000/svg" width="1979.9" height="390.3" viewBox="0 0 1979.9 390.3"><defs><style>.cls-1{fill:#c10a27;}.cls-2{fill:#bf172a;}</style></defs><title>LOGOS BODEGA DE LA TRATTORIA</title><g id="Capa_1" data-name="Capa 1"><path class="cls-1" d="M1083.9,192.9c8.5-.5,12.6-5.4,12.2-12.5s-5.8-10.8-14-10.3l-2.9.2,1.5,22.8Zm-12.6.8,3.7-.2-1.5-22.8-3.7.2-.3-5.1,12.4-.8c11.9-.7,19.4,5,20,15s-5.5,17.2-18.4,18l-11.9.8Z"/><polygon class="cls-1" points="1107.7 191 1111.4 190.8 1110.4 168 1106.6 168.2 1106.4 163.1 1131 162 1131.4 171.4 1126 171.7 1125.8 167.2 1116 167.7 1116.4 176.5 1126.4 176 1126.6 180.9 1116.7 181.3 1117.1 190.6 1126.9 190.2 1126.7 185.8 1132.1 185.5 1132.5 194.9 1107.9 196.1 1107.7 191"/><polygon class="cls-1" points="1072.7 243.5 1076.3 243.3 1075 221.9 1071.5 222.1 1071.2 217.3 1084.1 216.5 1084.4 221.3 1080.3 221.5 1081.6 243 1090.1 242.5 1089.8 238.1 1094.9 237.8 1095.5 246.9 1073 248.2 1072.7 243.5"/><path class="cls-1" d="M1119.9,229.3l-5.3-12-3.4,12.7Zm-19.2,11.2,2.7-.2,5.9-22.4-3.3.3-.4-4.8L1123,212l.4,4.8-3.4.2,9.4,21.2,2.7-.2.4,4.8-11.9,1-.3-4.8,3.5-.3-2.1-5-11.5.9-1.4,5.3,3.8-.3.4,4.8-11.9.9Z"/><polygon class="cls-1" points="147.9 223.1 156.2 223.1 156.2 171.5 147.9 171.5 147.9 163.1 174.9 163.1 174.9 171.5 165.7 171.5 165.7 223.2 187.3 223.2 187.3 213.1 196.4 213.1 196.4 231.5 147.9 231.5 147.9 223.1"/><path class="cls-1" d="M256.8,200.8,246,171l-10.8,29.8Zm-45.5,22.3h6.3l19-51.7H229v-8.3h34.3v8.3h-7.7l19.1,51.7H281v8.4H256.7v-8.3h7.9l-5.1-14.5h-27l-5.2,14.5h8.4v8.3H211.3Z"/><path class="cls-1" d="M386.2,187.4H368.4V90.5h24c13.1,0,15.8,11,15.8,20.3v57.1c0,12-3.7,19.5-22,19.5M392.4,306h-24V207h17.8c16.1,0,22,5.4,22,19.9V286c0,7.5-2.1,20-15.8,20m0-234.8H348.3V325.6h44.1c21.4,0,35.9-15.9,35.9-39.6V226.9c0-13.5-4-23.2-12.5-29.6,8.5-6.4,12.5-15.9,12.5-29.4V110.8c0-24-14.1-39.6-35.9-39.6"/><path class="cls-1" d="M510.2,308.4c-12.3,0-21.6-9.8-21.6-22.8V111.2c0-13.2,9.3-23.2,21.6-23.2s21.5,10,21.5,23.2V285.6c0,13-9.2,22.8-21.5,22.8m0-240.1c-23,0-41.7,19.3-41.7,42.9V285.6c0,23.7,18.7,42.9,41.7,42.9s41.6-19.2,41.6-42.9V111.2c0-23.6-18.7-42.9-41.6-42.9"/><path class="cls-1" d="M637,305.6H614.2V91.3H637c5,0,20.3,0,20.3,23.6V282.4c0,20.8-11.6,23.2-20.3,23.2m0-234H594.1V325.2H637c24.5,0,40.4-16.8,40.4-42.8V114.9c0-26.3-15.9-43.3-40.4-43.3"/><polygon class="cls-1" points="719.7 325.2 787.8 325.2 787.8 305.5 739.8 305.5 739.8 204.2 774.7 204.2 774.7 184.5 739.8 184.5 739.8 91.3 787.8 91.3 787.8 71.6 719.7 71.6 719.7 325.2"/><path class="cls-1" d="M863.9,68.3c-25.2,0-42.8,18.2-42.8,44.2V284c0,25,18.8,44.5,42.8,44.5S906,310.1,906,284.8V196.4H868.6v19.7h17.3v68.7c0,14.8-8.2,23.6-22,23.6s-22.7-9.6-22.7-24.4V112.5c0-14.4,9.3-24.5,22.7-24.5s22,8.8,22,24v31.8H906V112c0-25.7-17.3-43.7-42.1-43.7"/><path class="cls-1" d="M964,258.8l16.4-122.9,16.2,122.9ZM991.7,71.6h-22L935.4,325.2h19.8l6.2-46.8h37.7l5.8,46.8h19.8Z"/><polygon class="cls-1" points="1215 222.2 1223.4 222.1 1223.1 173.5 1208.8 173.5 1208.8 183.8 1200.5 183.8 1200.3 166 1254.6 165.7 1254.7 183.5 1246.4 183.5 1246.3 173.3 1232 173.4 1232.3 222 1240.7 222 1240.7 229.9 1215.1 230 1215 222.2"/><path class="cls-1" d="M1313.1,184.6c-.1-7.5-6.2-11.2-15.7-11.1H1290l.3,23.3h7.1c9.2-.2,15.8-4.6,15.7-12.3m-39.2,37.5h7.8l-.6-48.3h-7.8v-8l24.6-.2c14.4-.2,24.3,6.4,24.4,18.6.1,8.6-5.3,14.9-12.9,17.7l12.2,19.6h7.5v7.9l-13.6.2-14.8-25.3c-1.3.1-2.5.3-3.8.3h-6.5l.2,17.5h8.2v7.9l-24.9.3Z"/><path class="cls-1" d="M1387.7,200.9,1377.4,173l-10,28ZM1345.2,222h5.8l17.6-48.5h-7.1v-7.8h32.1v7.8h-7.2l18.1,48.3h5.9v7.9h-22.9v-7.8h7.4l-4.9-13.5h-25.3l-4.7,13.6h7.8v7.8l-22.8.2Z"/><polygon class="cls-1" points="1439.4 221.8 1447.8 221.9 1447.9 173.2 1433.6 173.2 1433.6 183.4 1425.2 183.4 1425.2 165.6 1479.5 165.7 1479.5 183.5 1471.1 183.5 1471.1 173.3 1456.8 173.2 1456.6 221.9 1465 221.9 1465 229.8 1439.4 229.8 1439.4 221.8"/><polygon class="cls-1" points="1511.4 221.8 1519.8 221.8 1520 173.2 1505.6 173.1 1505.6 183.4 1497.2 183.3 1497.3 165.5 1551.6 165.6 1551.5 183.5 1543.2 183.5 1543.2 173.2 1528.8 173.2 1528.7 221.8 1537.1 221.9 1537.1 229.8 1511.4 229.7 1511.4 221.8"/><path class="cls-1" d="M1622.8,198c.9-14.3-8.2-25.6-21.9-26.5s-24.2,9.1-25.1,23.5,8.2,25.6,21.9,26.5,24.1-9.1,25.1-23.5m-56.1-3.6c1.2-18.8,15.8-32.3,35-31s31.3,16.6,30.1,35.2-15.8,32.3-34.9,31.1-31.4-16.6-30.2-35.3"/><path class="cls-1" d="M1687.1,184.8c0-7.6-6.1-11.4-15.6-11.4h-7.4v23.2l7.1.2c9.2,0,16-4.4,15.9-12m-39.7,37h7.8V173.4h-7.8v-7.9H1672c14.5,0,24.2,6.8,24.2,19,0,8.5-5.5,14.8-13.1,17.5l11.9,19.8h7.5v7.9H1689l-14.5-25.5-3.8.2-6.6-.2v17.6h8.2v7.9h-24.9Z"/><polygon class="cls-1" points="1721.7 221.8 1730 221.8 1729.8 173.4 1721.4 173.5 1721.4 165.6 1746.9 165.5 1746.9 173.4 1738.6 173.4 1738.8 221.8 1747.1 221.7 1747.1 229.6 1721.7 229.7 1721.7 221.8"/><path class="cls-1" d="M1806.3,200.9,1796.2,173l-10.1,28Zm-42.5,20.9h5.8l17.8-48.4h-7.1v-7.8h32.2v7.8h-7.3l17.9,48.4h6v7.9h-22.8v-7.8h7.4l-4.8-13.6h-25.4l-4.7,13.5h7.8v7.8h-22.8Z"/><path class="cls-1" d="M1848.1,89.9a11.7,11.7,0,0,0,11.3,1.7,11.3,11.3,0,0,0,6.1-14.6,11,11,0,0,0-5.9-5.9l1.7-.8c6.7-2.1,15.7.2,19.9,10.2s-.3,19.2-8.1,22.8h-.2a30.8,30.8,0,0,1-4.9,1.9c-6.3,1.2-231.2.5-231.2.5l-.5,7.2s226.1.7,233.3-.7a35.4,35.4,0,0,0,6.6-2.5c11.3-5.3,16.6-20,11.6-32.1-3.6-8.7-10.4-13.6-17.4-14.8-12.9-2.3-22,4.7-25,11.6-1,2-3.8,9.9,2.7,15.4"/><rect class="cls-1" x="1176.2" y="86.8" width="649.9" height="7.36"/><rect class="cls-1" x="1176.4" y="106" width="649.9" height="7.1"/><path class="cls-1" d="M1848.1,309.2a11.7,11.7,0,0,1,11.3-1.7,11.3,11.3,0,0,1,6.1,14.6,11.5,11.5,0,0,1-5.9,6l1.7.7c6.7,2.1,15.7-.2,19.9-10.2,3.5-8.5-.3-19.2-8.1-22.8h-.2a30.8,30.8,0,0,0-4.9-1.9c-6.3-1.2-231.2-.5-231.2-.5l-.5-7.2s226.1-.7,233.3.7a35.4,35.4,0,0,1,6.6,2.5c11.3,5.3,16.6,20,11.6,32.1-3.6,8.7-10.4,13.6-17.4,14.9-12.9,2.3-22-4.8-25-11.7-1-2-3.8-9.9,2.7-15.4"/><rect class="cls-1" x="1176.2" y="305" width="649.9" height="7.36"/><rect class="cls-1" x="1176.4" y="286" width="649.9" height="7.1"/><path class="cls-1" d="M132.4,90.5a11.7,11.7,0,0,1-11.3,1.7A11.2,11.2,0,0,1,115,77.6a11,11,0,0,1,5.8-6l-1.7-.8c-6.6-2-15.7.3-19.8,10.3s.2,19.1,8.1,22.8h.2a23.4,23.4,0,0,0,4.9,1.8c6.3,1.2,166.9.7,166.9.7l.5,7.2s-161.8.5-169-.8a38.2,38.2,0,0,1-6.7-2.5c-11.3-5.4-16.6-20-11.6-32.1,3.7-8.7,10.4-13.6,17.5-14.9,12.9-2.3,22,4.8,25,11.7.9,2,3.7,9.8-2.7,15.4"/><rect class="cls-1" x="154.2" y="87.3" width="146.1" height="7.36"/><rect class="cls-1" x="154.2" y="106.5" width="146.1" height="7.1"/><path class="cls-1" d="M132.4,308.2a11.7,11.7,0,0,0-11.3-1.7,11.2,11.2,0,0,0-6.1,14.6,11.4,11.4,0,0,0,5.8,6l-1.7.8c-6.6,2-15.7-.3-19.8-10.3-3.5-8.5.2-19.2,8.1-22.8h.2a24.9,24.9,0,0,1,4.9-1.9c6.3-1.2,166.9-.7,166.9-.7l.5-7.1s-161.8-.6-169,.8a38.2,38.2,0,0,0-6.7,2.5c-11.3,5.3-16.6,20-11.6,32.1,3.7,8.7,10.4,13.6,17.5,14.9,12.9,2.3,22-4.8,25-11.7.9-2,3.7-9.9-2.7-15.4"/><rect class="cls-1" x="154.2" y="304" width="146.1" height="7.36"/><rect class="cls-1" x="154.2" y="285" width="146.1" height="7.1"/><path class="cls-2" d="M1067.9,288.2l6.8.2s-1,10.5-9.6,10.4-10.9-6-10.9-6-4-10.3,3.9-17.5,19.6-8.5,19.6-8.5,8.2-1.6,23.5-.5,28.2-1.3,31.6-2.6,8.9-4.1,11.5-9a10.7,10.7,0,0,0,.6-9.1l6.2-2.5s3.8,10.9-1.7,17.1-11.4,9.9-20,11.4a122.7,122.7,0,0,1-24.9,1.8c-7.1-.2-21.5-1.9-31.5,1.7s-11.3,6.9-11.3,6.9-4.3,9.1,1.8,9.8C1063.5,291.8,1067.2,292.6,1067.9,288.2Z"/><path class="cls-2" d="M1129.7,118.5l-6.8-.3s1-10.4,9.6-10.4,10.9,6,10.9,6,4,10.4-3.8,17.5-19.6,8.5-19.6,8.5-8.3,1.7-23.5.5-28.3,1.3-31.7,2.7-8.8,4-11.4,8.9a10.3,10.3,0,0,0-.6,9.1l-6.3,2.5s-3.8-10.9,1.7-17,11.5-9.9,20-11.5a130.3,130.3,0,0,1,24.9-1.8c7.2.3,21.5,2,31.5-1.7s11.3-6.9,11.3-6.9,4.4-9.1-1.7-9.8C1134.2,114.8,1130.5,114,1129.7,118.5Z"/></g></svg>