<?xml version="1.0" encoding="utf-8"?>
<!-- Generator: Adobe Illustrator 24.2.3, SVG Export Plug-In . SVG Version: 6.00 Build 0)  -->
<svg version="1.1" id="Capa_1" xmlns="http://www.w3.org/2000/svg" xmlns:xlink="http://www.w3.org/1999/xlink" x="0px" y="0px"
	 viewBox="0 0 304.57 117.38" style="enable-background:new 0 0 304.57 117.38;" xml:space="preserve">
<style type="text/css">
	.st0{fill:#592817;}
	.st1{fill:#F3091C;}
</style>
<g>
	<g>
		<polygon class="st0" points="10.06,0.45 0,0.45 0,66.26 30.72,66.26 30.72,56.25 10.06,56.25 		"/>
		<path class="st0" d="M90.09,46.49c0,2.77-0.98,5.14-2.93,7.11c-1.95,1.97-4.32,2.95-7.09,2.95c-2.77,0-5.14-0.98-7.11-2.95
			c-1.97-1.97-2.95-4.34-2.95-7.11V0.39H60v46.1c0,5.54,1.96,10.28,5.88,14.2c3.92,3.92,8.65,5.88,14.19,5.88
			c5.55,0,10.27-1.96,14.18-5.88c3.91-3.92,5.86-8.65,5.86-14.2V0.39H90.09V46.49z"/>
		<path class="st0" d="M153.12,54.3c-2.8-1.18-5.25-2.8-7.33-4.87c-2.09-2.07-3.73-4.5-4.92-7.29c-1.2-2.79-1.79-5.77-1.79-8.96
			c0-3.19,0.59-6.18,1.79-8.96c1.19-2.79,2.83-5.21,4.92-7.29c2.09-2.07,4.53-3.69,7.33-4.85c2.69-1.12,5.55-1.69,8.6-1.74V0.01
			c-4.56,0.05-8.83,0.9-12.8,2.58c-4.08,1.73-7.66,4.08-10.73,7.06c-3.07,2.98-5.49,6.51-7.26,10.57
			c-1.77,4.07-2.66,8.38-2.66,12.95c0,4.59,0.89,8.89,2.66,12.9c1.77,4.01,4.19,7.5,7.26,10.49c3.07,2.98,6.65,5.34,10.73,7.09
			c3.97,1.69,8.24,2.56,12.8,2.61v-10.2C158.68,56.01,155.81,55.43,153.12,54.3"/>
		<rect x="197.63" y="0.45" class="st0" width="10.02" height="65.82"/>
		<path class="st0" d="M301.92,20.23c-1.77-4.07-4.2-7.59-7.27-10.57c-3.07-2.98-6.65-5.33-10.73-7.06
			C279.83,0.87,275.45,0,270.77,0c-4.71,0-9.1,0.87-13.19,2.59c-4.08,1.73-7.66,4.08-10.73,7.06c-3.07,2.98-5.49,6.51-7.26,10.57
			c-1.78,4.07-2.66,8.38-2.66,12.95c0,4.59,0.88,8.89,2.66,12.9c1.77,4.01,4.19,7.5,7.26,10.49c3.07,2.98,6.65,5.34,10.73,7.09
			c4.09,1.74,8.48,2.61,13.19,2.61c4.68,0,9.06-0.87,13.15-2.61c4.08-1.75,7.66-4.11,10.73-7.09c3.07-2.98,5.49-6.48,7.27-10.49
			c1.77-4.01,2.66-8.31,2.66-12.9C304.57,28.61,303.69,24.3,301.92,20.23 M291.92,42.14c-1.19,2.79-2.83,5.22-4.9,7.29
			c-2.07,2.07-4.51,3.69-7.31,4.87c-2.8,1.18-5.78,1.77-8.94,1.77c-3.19,0-6.18-0.59-8.99-1.77c-2.8-1.18-5.24-2.8-7.33-4.87
			c-2.08-2.07-3.72-4.5-4.92-7.29c-1.19-2.79-1.79-5.77-1.79-8.96c0-3.19,0.59-6.18,1.79-8.96c1.19-2.79,2.83-5.22,4.92-7.29
			c2.09-2.07,4.53-3.69,7.33-4.85c2.8-1.16,5.8-1.74,8.99-1.74c3.16,0,6.14,0.58,8.94,1.74c2.8,1.16,5.24,2.78,7.31,4.85
			c2.07,2.07,3.7,4.5,4.9,7.29c1.19,2.79,1.79,5.78,1.79,8.96C293.71,36.37,293.11,39.35,291.92,42.14"/>
	</g>
	<path class="st1" d="M59,99.91l3.66-2.79l-0.32-0.43c-2.43-3.21-6.28-5.13-10.31-5.13c-7.13,0-12.93,5.79-12.93,12.91
		c0,7.12,5.8,12.91,12.93,12.91c4.05,0,7.9-1.92,10.31-5.13l0.32-0.43l-3.66-2.8l-0.32,0.43c-1.58,2.11-4,3.32-6.65,3.32
		c-4.58,0-8.31-3.72-8.31-8.3c0-4.58,3.73-8.3,8.31-8.3c2.65,0,5.07,1.21,6.65,3.32L59,99.91z"/>
	<path class="st1" d="M106.58,112.96l2.44,4.42h5.26L99.54,90.49l-14.71,26.89h5.26l2.41-4.42H106.58z M99.54,100.07l4.51,8.29
		h-9.03L99.54,100.07z"/>
	<polygon class="st1" points="156.51,104.12 145.89,104.12 145.89,96.17 160.05,96.17 160.05,91.56 141.27,91.56 141.27,117.38 
		145.89,117.38 145.89,108.73 156.51,108.73 	"/>
	<polygon class="st1" points="203.81,104.12 193.19,104.12 193.19,96.17 207.35,96.17 207.35,91.56 188.57,91.56 188.57,117.38 
		193.19,117.38 193.19,108.73 203.81,108.73 	"/>
	<g>
		<g>
			<polygon class="st1" points="250.85,86.65 240.69,83.54 239.67,86.93 249.83,90.05 			"/>
		</g>
	</g>
	<polygon class="st1" points="251.11,104.12 251.11,108.73 240.49,108.73 240.49,112.77 254.65,112.77 254.65,117.38 235.87,117.38 
		235.87,91.56 254.65,91.56 254.65,96.17 240.49,96.17 240.49,104.12 	"/>
</g>
</svg>
