<?xml version="1.0" encoding="utf-8"?>
<!-- Generator: Adobe Illustrator 24.2.3, SVG Export Plug-In . SVG Version: 6.00 Build 0)  -->
<svg version="1.1" id="Capa_1" xmlns="http://www.w3.org/2000/svg" xmlns:xlink="http://www.w3.org/1999/xlink" x="0px" y="0px"
	 viewBox="0 0 305.05 107.83" style="enable-background:new 0 0 305.05 107.83;" xml:space="preserve">
<style type="text/css">
	.st0{fill:#1B373D;}
</style>
<path class="st0" d="M191.52,0.8c-0.23-0.3-0.68-0.65-1.52-0.65h-12.93c-0.59,0-1.18,0.24-1.58,0.64c-0.33,0.33-0.52,0.76-0.54,1.22
	l-8.84,66.67l-8.42-66.62c-0.03-1.16-0.79-1.91-1.97-1.91h-13.68c-0.49,0-0.95,0.18-1.27,0.51c-0.37,0.37-0.55,0.88-0.55,1.52
	l0,0.07l16.09,103.73c0.07,1.16,1.12,1.86,2.12,1.86h13.23c0.59,0,1.18-0.24,1.58-0.65c0.32-0.33,0.51-0.74,0.53-1.18L191.79,2.38
	C191.98,1.61,191.75,1.09,191.52,0.8L191.52,0.8z M168.61,100.6h-6.24l-0.04-0.26L148.61,7.68h1.67l0.04,0.26l13.49,91h3.39
	l14.58-91.26h1.67L168.61,100.6z M15.63,8.89l-6.89,6.89v75.97l6.89,7.19h16.73l6.89-7.19V15.78l-7.04-6.89H15.63z M32.02,88.96
	l-2.74,2.75H18.71l-2.74-2.75v-70.1l2.74-2.74h10.57l2.74,2.74V88.96z M125.74,0.15h-12.03c-1.12,0-1.97,0.85-1.97,1.97v103.73
	c0,1.12,0.85,1.97,1.97,1.97h12.03c1.12,0,1.97-0.85,1.97-1.97V2.12C127.71,1,126.87,0.15,125.74,0.15z M118.97,100.15l-0.15-92.32
	h1.66l0.15,92.32H118.97z M96.23,91.71H79.71V1.97c0-1.12-0.85-1.97-1.97-1.97H65.72c-1.12,0-1.97,0.85-1.97,1.97v103.88
	c0,1.12,0.85,1.97,1.97,1.97h28.26c0.59,0,1.18-0.24,1.58-0.65c0.33-0.33,0.51-0.75,0.53-1.19l1.95-12.16l0.01-0.14
	C98.05,92.32,97.14,91.71,96.23,91.71z M89.4,100.6H70.97V7.83h1.66v91.11h17.24L89.4,100.6z M295.07,53.72V15.93l-7.04-7.04h-23.62
	l0.15,52.01h23.62L295.07,53.72z M287.69,50.93l-2.75,2.74h-13.31V16.12h13.31l2.75,2.74V50.93z M37.41,0.96
	c-0.6-0.59-1.38-0.81-1.91-0.81H12.65c-0.53,0-1.32,0.21-1.91,0.81l-9.92,9.92C0.21,11.48,0,12.26,0,12.8v82.39
	c0,0.51,0.21,1.32,0.8,1.91l9.74,9.89l0.04,0.05c0.6,0.59,1.38,0.81,1.91,0.81h23c0.54,0,1.32-0.21,1.91-0.81l9.92-9.92
	c0.6-0.59,0.81-1.38,0.81-1.92V12.8c0-0.54-0.21-1.32-0.81-1.91L37.41,0.96z M40.91,92.45l-7.84,8.15H14.92l-7.84-8.15V15.07
	l7.85-7.85h17.99l8,7.84V92.45z M304.95,105.32l-13.1-36.28h0.37c0.7,0,1.31-0.51,1.61-0.81l9.17-9.17c0.6-0.59,0.81-1.38,0.81-1.92
	V12.8c0-0.53-0.21-1.32-0.81-1.91l-9.92-9.93c-0.6-0.59-1.38-0.81-1.91-0.81h-33.53c-1.12,0-1.97,0.85-1.97,1.97v103.73
	c0,1.12,0.85,1.97,1.97,1.97h12.03c1.12,0,1.97-0.85,1.97-1.97V69.64h3.04l13.25,36.81l0.04,0.1c0.36,0.71,1.24,1.27,1.99,1.27
	h13.23c0.6,0,1.14-0.28,1.5-0.76C305.04,106.57,305.14,105.92,304.95,105.32z M293.35,100.15l-13.83-37.58h-14.97v37.58h-1.66
	l-0.15-92.92h25.99l8,8v39.19l-7.84,8.15h-7.36l13.53,37.58H293.35z M242.72,91.71h-23.59V61.97h15.77c1.12,0,1.97-0.85,1.97-1.97
	V47.97c0-1.12-0.85-1.97-1.97-1.97h-15.77V16.12h21.63c1.12,0,1.97-0.85,1.97-1.97V2.12c0-1.12-0.85-1.97-1.97-1.97h-35.63
	c-1.12,0-1.97,0.85-1.97,1.97v103.73c0,1.12,0.85,1.97,1.97,1.97h35.33c0.59,0,1.18-0.24,1.58-0.65c0.33-0.33,0.52-0.75,0.54-1.19
	l1.92-12c0.16-0.54,0.07-1.1-0.24-1.53C243.92,91.98,243.36,91.71,242.72,91.71z M235.92,100.6h-25.53V7.23h25.12v1.66h-23.45v44.19
	h17.59v1.66h-17.59v44.19h24.1L235.92,100.6z"/>
</svg>
